<?xml version="1.0" encoding="utf-8"?>
<!-- Generator: Adobe Illustrator 24.3.0, SVG Export Plug-In . SVG Version: 6.00 Build 0)  -->
<svg version="1.1" id="svg2" xmlns:svg="http://www.w3.org/2000/svg"
	 xmlns="http://www.w3.org/2000/svg" xmlns:xlink="http://www.w3.org/1999/xlink" x="0px" y="0px" viewBox="0 0 720.5 177.3"
	 style="enable-background:new 0 0 720.5 177.3;" xml:space="preserve" preserveAspectRatio="xMidYMid meet">
<style type="text/css">
	.st0{fill:#FF7E21;stroke:#000000;stroke-width:6.7601;stroke-miterlimit:2.6131;}
	.st1{fill:#FFFFFF;stroke:#000000;stroke-width:6.7601;stroke-miterlimit:2.6131;}
</style>
<polygon id="polygon8" class="st0" points="581.8,127.9 586.1,42.3 548,23 549,3.8 717,3.8 716.1,22 671.5,42.3 667.1,129 
	708.5,150.4 707.3,174 534.1,174 535.2,152.6 "/>
<path class="st0" d="M475.8,3.5c0,0,32.4-3.5,38.7,37.6c0,0,2.6,28.3-26.2,45c31.4,9.1,25.7,47.1,25.7,47.1
	c-9.5,43.2-53.7,40.7-53.7,40.7H246.4l1.3-21.4l39.9-24.6l3.8-86.8L254,22.9l1.3-19.3L475.8,3.5L475.8,3.5z"/>
<path class="st0" d="M80.9,3.6h92c40.1,0,70.9,33.6,68.8,74.9l-1,20.3c-2.1,41.4-36.3,74.9-76.4,74.9h-92
	c-40.1,0-70.9-33.5-68.8-74.9l1-20.3C6.6,37.1,40.8,3.6,80.9,3.6L80.9,3.6z"/>
<path id="path14" d="M679.1,111.3c0-4.3,1.7-8.2,4.4-11.1c2.7-2.8,6.5-4.6,10.7-4.6s8,1.8,10.7,4.6c2.7,2.8,4.4,6.7,4.4,11.1
	c0,4.3-1.7,8.2-4.4,11.1l0,0c-2.7,2.8-6.5,4.6-10.7,4.6s-8-1.8-10.7-4.6l0,0C680.8,119.6,679.1,115.6,679.1,111.3L679.1,111.3z
	 M694.3,113.2h-3.4v5.9h-2.8v-15.7h7.8c2.2,0.1,3.9,1.3,4.7,2.8c0.3,0.7,0.5,1.4,0.5,2.1l0,0c0,0.7-0.2,1.5-0.5,2.1
	c-0.5,1-1.5,1.8-2.9,2.3l4,6.6H698L694.3,113.2L694.3,113.2z M690.9,110.3c1.7,0,3.1-0.1,5-0.1h0.3l0,0c1.1-0.2,1.7-0.6,2-1.2
	c0.1-0.2,0.2-0.5,0.2-0.7c0-0.3-0.1-0.5-0.2-0.8c-0.4-0.7-1.1-1.2-2.3-1.2H691L690.9,110.3L690.9,110.3z M685.7,102.4
	c-2.2,2.3-3.6,5.4-3.6,8.9s1.4,6.6,3.6,8.9l0,0c2.2,2.3,5.3,3.7,8.6,3.7c3.4,0,6.4-1.4,8.6-3.7l0,0c2.2-2.3,3.6-5.4,3.6-8.9
	s-1.4-6.6-3.6-8.9c-2.2-2.3-5.3-3.7-8.6-3.7C690.9,98.7,687.9,100.2,685.7,102.4L685.7,102.4z"/>
<path class="st1" d="M123,26.9h5c11.5,0,20.3,9.6,19.7,21.4l-3.9,77.5c-0.6,11.8-10.4,21.4-21.8,21.4h-5c-11.5,0-20.3-9.6-19.7-21.4
	l3.9-77.5C101.8,36.5,111.6,26.9,123,26.9L123,26.9z"/>
<path class="st1" d="M399.9,130.2h-25.4l1.5-31.6h25.5c13.5-0.5,19.5,11.5,16.1,19.3C417.5,117.9,416.2,129.7,399.9,130.2
	L399.9,130.2z"/>
<path class="st1" d="M403,68.9h-25.4l1.5-29.7h26.7c10.1-0.3,17.4,7.2,15.2,16.7C421,55.9,420.4,68.9,403,68.9L403,68.9z"/>
</svg>
