<?xml version="1.0" encoding="utf-8"?>
<!-- Generator: Adobe Illustrator 24.3.0, SVG Export Plug-In . SVG Version: 6.00 Build 0)  -->
<svg version="1.1" id="od_Discount_Cenówka_000" xmlns="http://www.w3.org/2000/svg" xmlns:xlink="http://www.w3.org/1999/xlink"
	 x="0px" y="0px" viewBox="0 0 646 219" style="enable-background:new 0 0 646 219;" xml:space="preserve">
<style type="text/css">
	.st0{fill:#FFDD00;stroke:#000000;stroke-width:5;}
	.st1{enable-background:new    ;}
	.st2{fill-rule:evenodd;clip-rule:evenodd;fill:#FF0000;}
</style>
<rect id="PriceTag" x="2.5" y="2.5" class="st0" width="641" height="214"/>
<g id="Cena">
	<g class="st1">
		<path d="M246.9,151.4c0,7.5-0.8,13.5-2.5,18.1c-1.7,4.6-4.6,8.1-8.8,10.6c-4.2,2.5-9.8,4.1-16.9,5c-7.1,0.9-16.1,1.3-26.8,1.3
			c-6.5,0-12.6-0.2-18.3-0.5c-5.7-0.3-10.7-0.8-15.1-1.4c-5-0.5-9.7-1.1-13.9-1.9v-32.7h44.7v9.3c0.5,0.1,1,0.2,1.5,0.2
			c0.6,0.1,1.2,0.2,1.9,0.2h2.8c3.1,0,4.8-0.9,5.2-2.7c0.4-1.8,0.6-4.2,0.6-7.1v-4.5c0-3-0.6-5-1.9-6c-1.3-1-3.4-1.5-6.4-1.5h-18.4
			v-21.9h17.4c3,0,5.1-0.5,6.4-1.5c1.3-1,1.9-3.2,1.9-6.5v-2.6c0-3-0.2-5.1-0.7-6.5c-0.5-1.3-2.1-2-5-2c-1.6,0-3,0.1-4.1,0.3
			c-0.5,0.1-0.9,0.2-1.2,0.2v7.9h-43.5v-32c4.4-0.7,8.9-1.3,13.6-1.7c4-0.5,8.6-0.9,13.7-1.2c5.1-0.3,10.2-0.5,15.4-0.5
			c10,0,18.6,0.2,25.7,0.7c7.2,0.5,13,1.7,17.6,3.7c4.6,2,8,5,10.2,9c2.2,4,3.3,9.5,3.3,16.5c0,6.1-1,11.3-2.9,15.7
			c-2,4.4-6,7.4-12,9.1c3.9,1,7,2.5,9.2,4.4s3.9,4,5,6.4c1.1,2.4,1.8,4.9,2.1,7.7C246.8,145.6,246.9,148.5,246.9,151.4z"/>
		<path d="M358.1,152.9c0,6.8-0.8,12.3-2.5,16.5c-1.7,4.2-4.5,7.6-8.4,10.2c-4,2.5-9.2,4.2-15.8,5.2c-6.6,0.9-14.9,1.4-24.9,1.4
			c-6.8,0-13.2-0.2-19.2-0.5c-6-0.3-11.3-0.7-15.9-1.2c-5.4-0.5-10.3-1.1-14.8-1.9v-33.2h43v8.9c0.6,0.2,1.2,0.4,1.9,0.5
			c0.6,0.1,1.3,0.2,2.1,0.3c0.8,0.1,1.7,0.1,2.6,0.1c1.5,0,2.7-0.2,3.5-0.6c0.9-0.4,1.5-0.9,1.9-1.5c0.4-0.6,0.6-1.2,0.7-2
			c0.1-0.7,0.1-1.4,0.1-2V139l-6.2,1c-2,0.2-4.1,0.4-6.4,0.6c-2.3,0.2-4.8,0.3-7.4,0.3c-4.5,0-9-0.2-13.5-0.5
			c-4.5-0.3-8.7-1.3-12.4-3c-3.7-1.7-6.8-4.2-9.1-7.6c-2.4-3.4-3.5-8.1-3.5-14.2V99.7c0-7.3,1.4-13,4.3-17c2.9-4,6.7-7,11.4-8.9
			c4.7-1.9,10.1-3.1,16.2-3.5c6.1-0.4,12.3-0.6,18.8-0.6h7.2c6,0,11.7,0.2,17.3,0.7c5.6,0.5,10.5,1.7,14.8,3.8
			c4.3,2.1,7.8,5.2,10.4,9.5c2.6,4.3,4,10.2,4,17.8V152.9z M312.3,103.7c0-2.9-0.4-4.8-1.3-5.7c-0.9-0.9-2.4-1.4-4.7-1.4
			c-3,0-4.8,0.6-5.6,1.7c-0.7,1.1-1.1,2.8-1.1,5v9.3c0,0.5,0.1,1,0.2,1.6c0.1,0.6,0.4,1.3,0.9,1.9c0.5,0.6,1.1,1.1,2,1.5
			c0.9,0.4,2,0.6,3.5,0.6c1.5,0,2.9-0.2,4.1-0.5c0.7-0.1,1.4-0.3,2.1-0.5V103.7z"/>
	</g>
	<g class="st1">
		<path d="M470.3,152.9c0,6.8-0.8,12.3-2.5,16.5c-1.7,4.2-4.5,7.6-8.4,10.2c-4,2.5-9.2,4.2-15.8,5.2c-6.6,0.9-14.9,1.4-24.9,1.4
			c-6.8,0-13.2-0.2-19.2-0.5c-6-0.3-11.3-0.7-15.9-1.2c-5.4-0.5-10.3-1.1-14.8-1.9v-33.2h43v8.9c0.6,0.2,1.2,0.4,1.9,0.5
			c0.6,0.1,1.3,0.2,2.1,0.3c0.8,0.1,1.7,0.1,2.6,0.1c1.5,0,2.7-0.2,3.5-0.6c0.9-0.4,1.5-0.9,1.9-1.5c0.4-0.6,0.6-1.2,0.7-2
			c0.1-0.7,0.1-1.4,0.1-2V139l-6.2,1c-2,0.2-4.1,0.4-6.4,0.6c-2.3,0.2-4.8,0.3-7.4,0.3c-4.5,0-9-0.2-13.5-0.5
			c-4.5-0.3-8.7-1.3-12.4-3c-3.7-1.7-6.8-4.2-9.1-7.6c-2.4-3.4-3.5-8.1-3.5-14.2V99.7c0-7.3,1.4-13,4.3-17c2.9-4,6.7-7,11.4-8.9
			c4.7-1.9,10.1-3.1,16.2-3.5c6.1-0.4,12.3-0.6,18.8-0.6h7.2c6,0,11.7,0.2,17.3,0.7c5.6,0.5,10.5,1.7,14.8,3.8
			c4.3,2.1,7.8,5.2,10.4,9.5c2.6,4.3,4,10.2,4,17.8V152.9z M424.5,103.7c0-2.9-0.4-4.8-1.3-5.7c-0.9-0.9-2.4-1.4-4.7-1.4
			c-3,0-4.8,0.6-5.6,1.7c-0.7,1.1-1.1,2.8-1.1,5v9.3c0,0.5,0.1,1,0.2,1.6c0.1,0.6,0.4,1.3,0.9,1.9c0.5,0.6,1.1,1.1,2,1.5
			c0.9,0.4,2,0.6,3.5,0.6c1.5,0,2.9-0.2,4.1-0.5c0.7-0.1,1.4-0.3,2.1-0.5V103.7z"/>
	</g>
	<g class="st1">
		<path d="M504.9,194h-24.9l1.5-41.6H516L504.9,194z"/>
	</g>
	<g id="_00" class="st1">
		<path d="M540.2,121c0,4.6-0.7,8.2-2.2,10.9c-1.4,2.6-3.5,4.6-6.2,5.8c-2.7,1.3-5.9,2.1-9.7,2.4c-3.8,0.3-8,0.5-12.6,0.5
			c-4.9,0-9.3-0.2-13.1-0.5c-3.8-0.3-7.1-1.1-9.7-2.4c-2.6-1.3-4.6-3.2-6-5.8c-1.4-2.6-2.1-6.2-2.1-10.9V91.8
			c0-4.8,0.6-8.5,1.7-11.4c1.1-2.8,2.9-5,5.3-6.4c2.4-1.4,5.6-2.4,9.5-2.8c3.9-0.4,8.7-0.7,14.3-0.7c5.6,0,10.3,0.2,14.2,0.7
			c3.9,0.4,7.1,1.4,9.5,2.9c2.4,1.5,4.2,3.6,5.3,6.4c1.1,2.8,1.7,6.6,1.7,11.3V121z M513.2,90.1c0-0.3,0-0.6-0.1-1
			c0-0.4-0.2-0.7-0.4-1.1c-0.2-0.3-0.6-0.6-1.1-0.9c-0.5-0.2-1.2-0.4-2.1-0.4c-1,0-1.7,0.1-2.2,0.4c-0.5,0.2-0.9,0.5-1.1,0.8
			c-0.2,0.3-0.4,0.7-0.5,1c-0.1,0.4-0.1,0.7-0.1,1v30.3c0,1.4,0.2,2.4,0.7,3.1c0.5,0.7,1.6,1,3.2,1c1.6,0,2.6-0.3,3.1-1
			c0.4-0.7,0.7-1.7,0.7-3V90.1z"/>
		<path d="M607.1,121c0,4.6-0.7,8.2-2.2,10.9c-1.4,2.6-3.5,4.6-6.2,5.8c-2.7,1.3-5.9,2.1-9.7,2.4c-3.8,0.3-8,0.5-12.6,0.5
			c-4.9,0-9.3-0.2-13.1-0.5c-3.8-0.3-7.1-1.1-9.7-2.4c-2.6-1.3-4.6-3.2-6-5.8c-1.4-2.6-2.1-6.2-2.1-10.9V91.8
			c0-4.8,0.6-8.5,1.7-11.4c1.1-2.8,2.9-5,5.3-6.4c2.4-1.4,5.6-2.4,9.5-2.8c3.9-0.4,8.7-0.7,14.3-0.7c5.6,0,10.3,0.2,14.2,0.7
			c3.9,0.4,7.1,1.4,9.5,2.9c2.4,1.5,4.2,3.6,5.3,6.4c1.1,2.8,1.7,6.6,1.7,11.3V121z M580.2,90.1c0-0.3,0-0.6-0.1-1
			c0-0.4-0.2-0.7-0.4-1.1c-0.2-0.3-0.6-0.6-1.1-0.9c-0.5-0.2-1.2-0.4-2.1-0.4c-1,0-1.7,0.1-2.2,0.4c-0.5,0.2-0.9,0.5-1.1,0.8
			c-0.2,0.3-0.4,0.7-0.5,1c-0.1,0.4-0.1,0.7-0.1,1v30.3c0,1.4,0.2,2.4,0.7,3.1c0.5,0.7,1.6,1,3.2,1c1.6,0,2.6-0.3,3.1-1
			c0.4-0.7,0.7-1.7,0.7-3V90.1z"/>
	</g>
	<g class="st1">
		<path d="M568.3,178.5c0,1.3-0.2,2.4-0.5,3.2c-0.4,0.8-0.9,1.4-1.6,1.8c-0.7,0.4-1.6,0.7-2.6,0.8c-1.1,0.1-2.3,0.2-3.6,0.2
			c-1,0-2,0-2.9-0.1c-0.9-0.1-1.8-0.2-2.5-0.3c-0.8-0.1-1.6-0.2-2.4-0.4v-5.1h6.7v1.8c0.1,0,0.3,0,0.4,0.1c0.1,0,0.3,0,0.4,0h0.5
			c0.5,0,0.8-0.1,0.9-0.4s0.1-0.6,0.1-0.9c0-0.2,0-0.5-0.1-0.6s-0.2-0.4-0.5-0.6c-0.2-0.2-0.6-0.4-1-0.6c-0.4-0.2-1-0.5-1.8-0.8
			c-1-0.4-1.8-0.8-2.5-1.2s-1.3-0.8-1.7-1.3c-0.5-0.5-0.8-1-1-1.7c-0.2-0.6-0.3-1.5-0.3-2.5c0-1.3,0.2-2.3,0.6-3
			c0.4-0.7,1-1.3,1.7-1.7c0.7-0.4,1.6-0.6,2.6-0.7s2.1-0.1,3.3-0.1c1.1,0,2,0,3,0.1c0.9,0.1,1.7,0.2,2.4,0.3
			c0.8,0.1,1.5,0.2,2.2,0.4v4.9h-6.4v-1.7c-0.1,0-0.2,0-0.3,0c-0.1,0-0.2,0-0.3,0c-0.1,0-0.3,0-0.4,0c-0.6,0-0.9,0.1-1,0.4
			c-0.1,0.3-0.1,0.5-0.1,0.8c0,0.3,0.1,0.6,0.2,0.8c0.1,0.2,0.4,0.4,0.7,0.6c0.3,0.2,0.8,0.4,1.4,0.7c0.6,0.2,1.3,0.5,2.2,0.9
			c1,0.4,1.8,0.8,2.4,1.3c0.6,0.4,1,0.9,1.3,1.4c0.3,0.5,0.5,1,0.6,1.6C568.3,177.2,568.3,177.8,568.3,178.5z"/>
	</g>
	<g class="st1">
		<path d="M569.5,184.2v-4.3l5.9-10.4h-5.5v-4.7h13.7v4.3l-6,10.4h6.3v4.7H569.5z"/>
	</g>
	<g class="st1">
		<path d="M596.2,184.1c-0.2,0-0.5,0.1-0.8,0.1c-0.3,0-0.7,0.1-1.1,0.1s-1,0-1.6,0c-1.4,0-2.5-0.2-3.3-0.5c-0.8-0.3-1.4-0.8-1.8-1.3
			c-0.4-0.5-0.7-1.1-0.8-1.7s-0.2-1.2-0.2-1.8v-9.8h-1.5v-4.5h1.7v-3.6l7-1.7v5.3h2.3v4.5h-2.3v9.3c0,0.2,0,0.4,0,0.6
			c0,0.2,0,0.4,0.1,0.6c0.1,0.2,0.2,0.4,0.3,0.5c0.2,0.1,0.4,0.2,0.7,0.2h0.6c0.2,0,0.3,0,0.4,0c0.1,0,0.2,0,0.3-0.1V184.1z"/>
	</g>
	<g class="st1">
		<path d="M597.6,184.2v-7h7.5v7H597.6z"/>
	</g>
</g>
<g id="Discount">
	<g class="st1">
		<path d="M66.6,47.3c0,1.8-0.4,3.2-1.1,4.3c-0.7,1-1.7,1.8-2.9,2.3c-1.2,0.5-2.6,0.8-4.1,0.9c-1.5,0.1-3.1,0.2-4.8,0.2h-1.8
			c-1.5,0-3-0.1-4.4-0.2c-1.4-0.1-2.7-0.4-3.8-1c-1.1-0.5-2-1.3-2.7-2.4c-0.7-1.1-1-2.6-1-4.5V33.8c0-1.7,0.2-3.1,0.6-4.2
			c0.4-1.1,1.1-2,2.1-2.6c1-0.6,2.4-1.1,4.1-1.3c1.7-0.2,3.8-0.4,6.4-0.4c1.7,0,3.3,0,4.9,0.1c1.5,0.1,2.9,0.2,4,0.3
			c1.4,0.1,2.6,0.3,3.8,0.4v8.5h-11v-2.3c-0.1,0-0.3-0.1-0.5-0.1c-0.1,0-0.3-0.1-0.5-0.1c-0.2,0-0.4,0-0.7,0c-0.4,0-0.7,0.1-0.9,0.2
			c-0.2,0.1-0.4,0.2-0.5,0.4c-0.1,0.2-0.2,0.3-0.2,0.5c0,0.2,0,0.3,0,0.5v3.6c0.6-0.1,1.2-0.1,1.8-0.2c0.5-0.1,1-0.1,1.5-0.2
			c0.5-0.1,1-0.1,1.3-0.1c1.1,0,2.3,0.1,3.5,0.2c1.2,0.1,2.3,0.4,3.3,0.7s1.8,1,2.5,1.8c0.6,0.8,1,1.9,1,3.3V47.3z M54.9,44
			c0-0.1,0-0.3,0-0.4c0-0.2-0.1-0.3-0.2-0.5c-0.1-0.2-0.3-0.3-0.5-0.4c-0.2-0.1-0.5-0.2-0.9-0.2c-0.2,0-0.4,0-0.5,0
			c-0.2,0-0.4,0.1-0.5,0.1c-0.2,0.1-0.4,0.1-0.5,0.1v3.5c0,0.7,0.1,1.2,0.3,1.4c0.2,0.2,0.6,0.4,1.2,0.4c0.8,0,1.2-0.1,1.4-0.4
			c0.2-0.3,0.3-0.7,0.3-1.3V44z"/>
	</g>
	<g class="st1">
		<path d="M95,46.5c0,1.7-0.2,3.1-0.6,4.2c-0.4,1.1-1.1,1.9-2.1,2.6s-2.4,1.1-4,1.3c-1.7,0.2-3.8,0.4-6.3,0.4c-1.7,0-3.4,0-4.9-0.1
			c-1.5-0.1-2.9-0.2-4.1-0.3c-1.4-0.1-2.6-0.3-3.8-0.5v-8.5h11v2.3c0.1,0.1,0.3,0.1,0.5,0.1c0.1,0,0.3,0.1,0.5,0.1
			c0.2,0,0.4,0,0.7,0c0.4,0,0.7-0.1,0.9-0.2c0.2-0.1,0.4-0.2,0.5-0.4c0.1-0.1,0.2-0.3,0.2-0.5c0-0.2,0-0.4,0-0.5V43l-1.6,0.3
			c-0.5,0.1-1,0.1-1.6,0.2c-0.6,0-1.2,0.1-1.9,0.1c-1.1,0-2.3,0-3.4-0.1c-1.2-0.1-2.2-0.3-3.2-0.8c-1-0.4-1.7-1.1-2.3-1.9
			c-0.6-0.9-0.9-2.1-0.9-3.6v-4c0-1.9,0.4-3.3,1.1-4.3c0.7-1,1.7-1.8,2.9-2.3c1.2-0.5,2.6-0.8,4.1-0.9c1.5-0.1,3.1-0.2,4.8-0.2h1.8
			c1.5,0,3,0.1,4.4,0.2c1.4,0.1,2.7,0.4,3.8,1c1.1,0.5,2,1.3,2.7,2.4c0.7,1.1,1,2.6,1,4.5V46.5z M83.4,34c0-0.7-0.1-1.2-0.3-1.4
			s-0.6-0.4-1.2-0.4c-0.8,0-1.2,0.1-1.4,0.4c-0.2,0.3-0.3,0.7-0.3,1.3v2.4c0,0.1,0,0.3,0,0.4c0,0.2,0.1,0.3,0.2,0.5
			c0.1,0.2,0.3,0.3,0.5,0.4c0.2,0.1,0.5,0.2,0.9,0.2c0.4,0,0.7,0,1.1-0.1c0.2,0,0.4-0.1,0.5-0.1V34z"/>
	</g>
	<g class="st1">
		<path d="M123.6,46.5c0,1.7-0.2,3.1-0.6,4.2c-0.4,1.1-1.1,1.9-2.1,2.6s-2.4,1.1-4,1.3c-1.7,0.2-3.8,0.4-6.3,0.4
			c-1.7,0-3.4,0-4.9-0.1c-1.5-0.1-2.9-0.2-4.1-0.3c-1.4-0.1-2.6-0.3-3.8-0.5v-8.5h11v2.3c0.1,0.1,0.3,0.1,0.5,0.1
			c0.1,0,0.3,0.1,0.5,0.1c0.2,0,0.4,0,0.7,0c0.4,0,0.7-0.1,0.9-0.2c0.2-0.1,0.4-0.2,0.5-0.4c0.1-0.1,0.2-0.3,0.2-0.5
			c0-0.2,0-0.4,0-0.5V43l-1.6,0.3c-0.5,0.1-1,0.1-1.6,0.2c-0.6,0-1.2,0.1-1.9,0.1c-1.1,0-2.3,0-3.4-0.1c-1.2-0.1-2.2-0.3-3.2-0.8
			c-1-0.4-1.7-1.1-2.3-1.9C97.3,39.8,97,38.6,97,37v-4c0-1.9,0.4-3.3,1.1-4.3c0.7-1,1.7-1.8,2.9-2.3c1.2-0.5,2.6-0.8,4.1-0.9
			c1.5-0.1,3.1-0.2,4.8-0.2h1.8c1.5,0,3,0.1,4.4,0.2c1.4,0.1,2.7,0.4,3.8,1c1.1,0.5,2,1.3,2.7,2.4c0.7,1.1,1,2.6,1,4.5V46.5z
			 M111.9,34c0-0.7-0.1-1.2-0.3-1.4s-0.6-0.4-1.2-0.4c-0.8,0-1.2,0.1-1.4,0.4c-0.2,0.3-0.3,0.7-0.3,1.3v2.4c0,0.1,0,0.3,0,0.4
			c0,0.2,0.1,0.3,0.2,0.5c0.1,0.2,0.3,0.3,0.5,0.4c0.2,0.1,0.5,0.2,0.9,0.2c0.4,0,0.7,0,1.1-0.1c0.2,0,0.4-0.1,0.5-0.1V34z"/>
	</g>
	<g class="st1">
		<path d="M132.4,57h-6.4l0.4-10.6h8.8L132.4,57z"/>
		<path d="M136.5,46.4v-7H150v7H136.5z"/>
	</g>
	<path id="Line" class="st2" d="M39.5,52.8l110.3-28.3l0.7,1.7L40.2,54.5L39.5,52.8z"/>
	<g id="od" class="st1">
		<path d="M75.2,174.8c0,2.8-0.5,4.9-1.6,6.4c-1,1.5-2.4,2.6-4.2,3.4c-1.7,0.7-3.8,1.2-6.1,1.3c-2.3,0.2-4.8,0.3-7.3,0.3
			c-2.7,0-5.2-0.1-7.6-0.3c-2.4-0.2-4.4-0.6-6.1-1.3c-1.7-0.7-3.1-1.9-4.1-3.4c-1-1.5-1.5-3.7-1.5-6.4v-23.4c0-2.8,0.5-4.9,1.5-6.4
			c1-1.5,2.3-2.7,4-3.4c1.7-0.8,3.8-1.2,6.1-1.4s4.9-0.3,7.7-0.3c2.7,0,5.2,0.1,7.5,0.3c2.3,0.2,4.3,0.6,6.1,1.4
			c1.7,0.8,3.1,1.9,4.1,3.4c1,1.5,1.5,3.7,1.5,6.4V174.8z M58.7,154c0-0.9-0.1-1.7-0.3-2.3c-0.2-0.6-1-1-2.3-1
			c-0.8,0-1.4,0.1-1.7,0.3c-0.4,0.2-0.6,0.5-0.8,0.8c-0.2,0.3-0.3,0.7-0.3,1.2v19.6c0,0.8,0.1,1.4,0.4,2c0.3,0.5,1.1,0.8,2.4,0.8
			c1.2,0,2-0.3,2.2-0.8c0.3-0.6,0.4-1.2,0.4-1.9V154z"/>
		<path d="M101.9,185.3v-3.5c-0.1,0.1-0.3,0.3-0.6,0.7c-0.3,0.4-0.9,0.8-1.6,1.3c-0.7,0.5-1.6,0.9-2.7,1.3c-1.1,0.4-2.4,0.6-3.9,0.6
			c-3.5,0-6.2-0.5-8.1-1.6c-1.8-1.1-3.1-2.2-3.9-3.5c-1-1.5-1.4-3.3-1.4-5.2v-23.5c0-4.2,1.1-7.2,3.2-8.9c2.1-1.7,5.5-2.6,10.2-2.6
			c1.5,0,2.7,0.2,3.8,0.5c1,0.3,1.9,0.6,2.6,1c0.8,0.5,1.5,0.9,2,1.4v-14.2h16.5v56.2H101.9z M101.4,151.6c-0.3-0.1-0.6-0.1-0.8-0.3
			c-0.3-0.1-0.6-0.1-0.9-0.2c-0.3-0.1-0.7-0.1-1-0.1c-1.6,0-2.4,0.7-2.4,2.2v19.9c0,0.5,0.2,0.9,0.6,1.3c0.4,0.4,1.1,0.5,2,0.5
			c0.3,0,0.6,0,0.9,0c0.3,0,0.6-0.1,0.9-0.1l0.8-0.2V151.6z"/>
	</g>
</g>
</svg>
