<?xml version="1.0" encoding="utf-8"?>
<!-- Generator: Adobe Illustrator 24.3.0, SVG Export Plug-In . SVG Version: 6.00 Build 0)  -->
<svg version="1.1" id="Warstwa_1" xmlns="http://www.w3.org/2000/svg" xmlns:xlink="http://www.w3.org/1999/xlink" x="0px" y="0px"
	 viewBox="0 0 434 219" style="enable-background:new 0 0 434 219;" xml:space="preserve">
<style type="text/css">
	.st0{fill:#FFDD00;stroke:#000000;stroke-width:5;}
	.st1{enable-background:new    ;}
	.st2{fill-rule:evenodd;clip-rule:evenodd;fill:#FF0000;}
</style>
<rect id="PriceTag" x="2.5" y="2.5" class="st0" width="429" height="214"/>
<g id="Cena">
	<g class="st1">
		<path d="M142.2,151.7c0,7.5-0.8,13.6-2.5,18.2c-1.7,4.6-4.6,8.2-8.8,10.7c-4.2,2.5-9.9,4.2-17.1,5c-7.2,0.9-16.2,1.3-27.1,1.3
			c-6.6,0-12.7-0.2-18.5-0.5c-5.7-0.3-10.8-0.8-15.2-1.4c-5.1-0.5-9.8-1.1-14-1.9v-32.9h45.1v9.4c0.5,0.1,1,0.2,1.6,0.2
			c0.6,0.1,1.2,0.2,1.9,0.2h2.8c3.1,0,4.9-0.9,5.3-2.7c0.4-1.8,0.6-4.2,0.6-7.2v-4.5c0-3-0.6-5-1.9-6.1c-1.3-1-3.4-1.6-6.4-1.6H69.4
			v-22h17.5c3,0,5.1-0.5,6.4-1.6c1.3-1,1.9-3.2,1.9-6.6v-2.6c0-3-0.2-5.2-0.7-6.5c-0.5-1.3-2.1-2-5-2c-1.6,0-3,0.1-4.2,0.3
			c-0.5,0.1-0.9,0.2-1.2,0.2v8H40.2V72.8c4.4-0.7,9-1.3,13.7-1.7c4-0.5,8.6-0.9,13.8-1.2c5.1-0.3,10.3-0.5,15.5-0.5
			c10.1,0,18.7,0.2,25.9,0.7c7.2,0.5,13.1,1.7,17.8,3.7c4.6,2,8,5.1,10.2,9.1c2.2,4,3.3,9.6,3.3,16.6c0,6.1-1,11.4-2.9,15.8
			c-2,4.4-6,7.5-12.1,9.2c3.9,1,7,2.5,9.3,4.4c2.3,1.9,3.9,4,5,6.4c1.1,2.4,1.8,5,2.1,7.8C142.1,146,142.2,148.9,142.2,151.7z"/>
	</g>
	<g class="st1">
		<path d="M254.2,153.3c0,6.8-0.8,12.4-2.5,16.6c-1.7,4.3-4.5,7.7-8.5,10.2c-4,2.5-9.3,4.3-16,5.2c-6.6,0.9-15,1.4-25.1,1.4
			c-6.8,0-13.3-0.2-19.3-0.5s-11.4-0.8-16-1.2c-5.4-0.5-10.4-1.1-14.9-1.9v-33.5h43.4v9c0.6,0.2,1.2,0.4,1.9,0.5
			c0.6,0.1,1.3,0.2,2.1,0.3c0.8,0.1,1.7,0.1,2.6,0.1c1.5,0,2.7-0.2,3.6-0.6c0.9-0.4,1.5-0.9,1.9-1.5c0.4-0.6,0.6-1.2,0.7-2
			c0.1-0.8,0.1-1.4,0.1-2v-14.2l-6.2,1c-2,0.2-4.1,0.4-6.4,0.6c-2.3,0.2-4.8,0.3-7.5,0.3c-4.5,0-9-0.2-13.6-0.5
			c-4.6-0.3-8.7-1.4-12.5-3c-3.8-1.7-6.8-4.2-9.2-7.6c-2.4-3.4-3.6-8.2-3.6-14.3v-16c0-7.4,1.4-13.1,4.3-17.2c2.9-4,6.7-7,11.4-9
			c4.7-2,10.2-3.1,16.3-3.6c6.1-0.4,12.4-0.6,18.9-0.6h7.3c6,0,11.8,0.2,17.4,0.7c5.6,0.5,10.6,1.7,14.9,3.8
			c4.3,2.1,7.8,5.3,10.5,9.6c2.7,4.3,4,10.3,4,17.9V153.3z M208.1,103.7c0-2.9-0.4-4.8-1.3-5.7c-0.9-0.9-2.5-1.4-4.8-1.4
			c-3,0-4.9,0.6-5.6,1.7c-0.8,1.2-1.1,2.8-1.1,5v9.4c0,0.5,0.1,1,0.2,1.6c0.1,0.6,0.4,1.3,0.9,1.9c0.5,0.6,1.1,1.2,2,1.6
			c0.9,0.4,2.1,0.6,3.6,0.6c1.5,0,2.9-0.2,4.2-0.5c0.7-0.1,1.4-0.3,2.1-0.5V103.7z"/>
	</g>
	<g class="st1">
		<path d="M289.1,194.8h-25.1l1.6-42h34.9L289.1,194.8z"/>
	</g>
	<g id="_99" class="st1">
		<path d="M328.9,120.7c0,4.1-0.5,7.4-1.5,10c-1,2.6-2.7,4.6-5.1,6.2c-2.4,1.5-5.6,2.6-9.6,3.1c-4,0.6-9,0.8-15.1,0.8
			c-4.1,0-8-0.1-11.6-0.3c-3.7-0.2-6.9-0.5-9.6-0.7c-3.3-0.3-6.3-0.7-9-1.1v-20.1h26.1v5.4c0.3,0.1,0.7,0.2,1.1,0.3
			c0.3,0.1,0.8,0.1,1.3,0.2c0.5,0,1,0.1,1.6,0.1c0.9,0,1.6-0.1,2.1-0.4c0.5-0.2,0.9-0.5,1.1-0.9c0.2-0.3,0.4-0.7,0.4-1.2
			c0-0.5,0.1-0.9,0.1-1.2v-8.6l-3.8,0.6c-1.2,0.1-2.5,0.3-3.9,0.4c-1.4,0.1-2.9,0.2-4.5,0.2c-2.7,0-5.4-0.1-8.2-0.3
			c-2.7-0.2-5.3-0.8-7.5-1.8c-2.3-1-4.1-2.5-5.5-4.6c-1.4-2.1-2.1-4.9-2.1-8.6v-9.6c0-4.5,0.9-7.9,2.6-10.3c1.7-2.4,4-4.2,6.9-5.4
			c2.9-1.2,6.1-1.9,9.8-2.1c3.7-0.2,7.5-0.4,11.4-0.4h4.4c3.6,0,7.1,0.1,10.5,0.4c3.4,0.3,6.4,1,9,2.3c2.6,1.3,4.7,3.2,6.3,5.8
			c1.6,2.6,2.4,6.2,2.4,10.8V120.7z M301.2,90.9c0-1.7-0.3-2.9-0.8-3.4s-1.5-0.8-2.9-0.8c-1.8,0-2.9,0.3-3.4,1
			c-0.5,0.7-0.7,1.7-0.7,3v5.6c0,0.3,0,0.6,0.1,1c0.1,0.4,0.2,0.8,0.5,1.1c0.3,0.4,0.7,0.7,1.2,0.9c0.5,0.2,1.2,0.4,2.1,0.4
			c0.9,0,1.7-0.1,2.5-0.3c0.4-0.1,0.8-0.2,1.3-0.3V90.9z"/>
		<path d="M396.9,120.7c0,4.1-0.5,7.4-1.5,10c-1,2.6-2.7,4.6-5.1,6.2c-2.4,1.5-5.6,2.6-9.6,3.1c-4,0.6-9,0.8-15.1,0.8
			c-4.1,0-8-0.1-11.6-0.3c-3.7-0.2-6.9-0.5-9.6-0.7c-3.3-0.3-6.3-0.7-9-1.1v-20.1h26.1v5.4c0.3,0.1,0.7,0.2,1.1,0.3
			c0.3,0.1,0.8,0.1,1.3,0.2c0.5,0,1,0.1,1.6,0.1c0.9,0,1.6-0.1,2.1-0.4c0.5-0.2,0.9-0.5,1.1-0.9c0.2-0.3,0.4-0.7,0.4-1.2
			c0-0.5,0.1-0.9,0.1-1.2v-8.6l-3.8,0.6c-1.2,0.1-2.5,0.3-3.9,0.4c-1.4,0.1-2.9,0.2-4.5,0.2c-2.7,0-5.4-0.1-8.2-0.3
			c-2.7-0.2-5.3-0.8-7.5-1.8c-2.3-1-4.1-2.5-5.5-4.6c-1.4-2.1-2.1-4.9-2.1-8.6v-9.6c0-4.5,0.9-7.9,2.6-10.3c1.7-2.4,4-4.2,6.9-5.4
			c2.9-1.2,6.1-1.9,9.8-2.1c3.7-0.2,7.5-0.4,11.4-0.4h4.4c3.6,0,7.1,0.1,10.5,0.4c3.4,0.3,6.4,1,9,2.3c2.6,1.3,4.7,3.2,6.3,5.8
			c1.6,2.6,2.4,6.2,2.4,10.8V120.7z M369.2,90.9c0-1.7-0.3-2.9-0.8-3.4c-0.5-0.6-1.5-0.8-2.9-0.8c-1.8,0-2.9,0.3-3.4,1
			c-0.5,0.7-0.7,1.7-0.7,3v5.6c0,0.3,0,0.6,0.1,1c0.1,0.4,0.2,0.8,0.5,1.1c0.3,0.4,0.7,0.7,1.2,0.9c0.5,0.2,1.2,0.4,2.1,0.4
			c0.9,0,1.7-0.1,2.5-0.3c0.4-0.1,0.8-0.2,1.3-0.3V90.9z"/>
	</g>
	<g id="m2" class="st1">
		<path d="M363.9,184.8v-14.1c0-0.3,0-0.5-0.1-0.7c-0.1-0.2-0.3-0.2-0.7-0.2c-0.1,0-0.3,0-0.4,0c-0.1,0-0.2,0-0.3,0.1
			s-0.2,0-0.3,0.1v14.8h-7.3v-14.1c0-0.2,0-0.4-0.1-0.6c-0.1-0.2-0.3-0.3-0.7-0.3c-0.3,0-0.5,0-0.8,0.1c-0.1,0-0.2,0-0.3,0.1v14.9
			h-7.2v-19.6h6.7v1.6c0,0,0.1-0.1,0.2-0.3c0.2-0.2,0.4-0.4,0.8-0.6c0.4-0.2,0.9-0.4,1.5-0.6c0.6-0.2,1.4-0.3,2.3-0.3
			c0.7,0,1.4,0.1,1.9,0.3c0.5,0.2,0.9,0.4,1.2,0.7c0.3,0.3,0.6,0.6,0.8,1c0.3-0.4,0.7-0.7,1.1-1c0.4-0.2,0.9-0.5,1.5-0.7
			s1.4-0.3,2.3-0.3c1.2,0,2.1,0.2,2.8,0.5s1.2,0.8,1.6,1.3c0.4,0.5,0.6,1.1,0.7,1.7s0.1,1.2,0.1,1.7v14.6H363.9z"/>
		<path d="M394.8,167.3c0,1.5-0.2,2.8-0.7,3.8c-0.5,1-1.1,1.9-1.8,2.7c-0.7,0.7-1.5,1.4-2.4,1.9c-0.9,0.5-1.7,0.9-2.5,1.3
			c-0.8,0.4-1.4,0.7-2,1.1c-0.6,0.3-0.9,0.7-1,1.2h9.9v5.6h-21.5v-3.5c0-1.2,0.3-2.3,0.9-3.3s1.3-1.8,2.2-2.6
			c0.9-0.8,1.8-1.5,2.9-2.2s2-1.4,2.9-2c0.9-0.7,1.6-1.3,2.2-2c0.6-0.7,0.9-1.4,0.9-2.2c0-0.5-0.1-0.8-0.3-1c-0.2-0.2-0.5-0.3-1-0.3
			c-0.3,0-0.5,0-0.7,0s-0.3,0-0.4,0.1c-0.1,0-0.2,0-0.3,0.1v2.2h-8.7v-7.4c0.9-0.1,1.8-0.3,2.8-0.4c0.9-0.1,1.9-0.2,3.1-0.3
			c1.2-0.1,2.5-0.1,3.8-0.1c1.7,0,3.3,0,4.8,0.1c1.5,0.1,2.7,0.4,3.8,0.9c1,0.5,1.9,1.2,2.5,2.2
			C394.5,164.1,394.8,165.5,394.8,167.3z"/>
	</g>
</g>
<g id="Discount">
	<g class="st1">
		<path d="M65.6,47.3c0,1.8-0.4,3.2-1.1,4.3c-0.7,1-1.7,1.8-2.9,2.3c-1.2,0.5-2.6,0.8-4.1,0.9c-1.5,0.1-3.1,0.2-4.8,0.2h-1.8
			c-1.5,0-3-0.1-4.4-0.2c-1.4-0.1-2.7-0.4-3.8-1c-1.1-0.5-2-1.3-2.7-2.4c-0.7-1.1-1-2.6-1-4.5V33.8c0-1.7,0.2-3.1,0.6-4.2
			c0.4-1.1,1.1-2,2.1-2.6c1-0.6,2.4-1.1,4.1-1.3c1.7-0.2,3.8-0.4,6.4-0.4c1.7,0,3.3,0,4.9,0.1c1.5,0.1,2.9,0.2,4,0.3
			c1.4,0.1,2.6,0.3,3.8,0.4v8.5h-11v-2.3c-0.1,0-0.3-0.1-0.5-0.1c-0.1,0-0.3-0.1-0.5-0.1c-0.2,0-0.4,0-0.7,0c-0.4,0-0.7,0.1-0.9,0.2
			c-0.2,0.1-0.4,0.2-0.5,0.4c-0.1,0.2-0.2,0.3-0.2,0.5c0,0.2,0,0.3,0,0.5v3.6c0.6-0.1,1.2-0.1,1.8-0.2c0.5-0.1,1-0.1,1.5-0.2
			c0.5-0.1,1-0.1,1.3-0.1c1.1,0,2.3,0.1,3.5,0.2c1.2,0.1,2.3,0.4,3.3,0.7s1.8,1,2.5,1.8c0.6,0.8,1,1.9,1,3.3V47.3z M53.9,44
			c0-0.1,0-0.3,0-0.4c0-0.2-0.1-0.3-0.2-0.5c-0.1-0.2-0.3-0.3-0.5-0.4c-0.2-0.1-0.5-0.2-0.9-0.2c-0.2,0-0.4,0-0.5,0
			c-0.2,0-0.4,0.1-0.5,0.1c-0.2,0.1-0.4,0.1-0.5,0.1v3.5c0,0.7,0.1,1.2,0.3,1.4c0.2,0.2,0.6,0.4,1.2,0.4c0.8,0,1.2-0.1,1.4-0.4
			c0.2-0.3,0.3-0.7,0.3-1.3V44z"/>
	</g>
	<g class="st1">
		<path d="M94,46.5c0,1.7-0.2,3.1-0.6,4.2c-0.4,1.1-1.1,1.9-2.1,2.6s-2.4,1.1-4,1.3c-1.7,0.2-3.8,0.4-6.3,0.4c-1.7,0-3.4,0-4.9-0.1
			c-1.5-0.1-2.9-0.2-4.1-0.3c-1.4-0.1-2.6-0.3-3.8-0.5v-8.5h11v2.3c0.1,0.1,0.3,0.1,0.5,0.1c0.1,0,0.3,0.1,0.5,0.1
			c0.2,0,0.4,0,0.7,0c0.4,0,0.7-0.1,0.9-0.2c0.2-0.1,0.4-0.2,0.5-0.4c0.1-0.1,0.2-0.3,0.2-0.5c0-0.2,0-0.4,0-0.5V43l-1.6,0.3
			c-0.5,0.1-1,0.1-1.6,0.2c-0.6,0-1.2,0.1-1.9,0.1c-1.1,0-2.3,0-3.4-0.1c-1.2-0.1-2.2-0.3-3.2-0.8c-1-0.4-1.7-1.1-2.3-1.9
			c-0.6-0.9-0.9-2.1-0.9-3.6v-4c0-1.9,0.4-3.3,1.1-4.3c0.7-1,1.7-1.8,2.9-2.3c1.2-0.5,2.6-0.8,4.1-0.9c1.5-0.1,3.1-0.2,4.8-0.2h1.8
			c1.5,0,3,0.1,4.4,0.2c1.4,0.1,2.7,0.4,3.8,1c1.1,0.5,2,1.3,2.7,2.4c0.7,1.1,1,2.6,1,4.5V46.5z M82.4,34c0-0.7-0.1-1.2-0.3-1.4
			s-0.6-0.4-1.2-0.4c-0.8,0-1.2,0.1-1.4,0.4c-0.2,0.3-0.3,0.7-0.3,1.3v2.4c0,0.1,0,0.3,0,0.4c0,0.2,0.1,0.3,0.2,0.5
			c0.1,0.2,0.3,0.3,0.5,0.4c0.2,0.1,0.5,0.2,0.9,0.2c0.4,0,0.7,0,1.1-0.1c0.2,0,0.4-0.1,0.5-0.1V34z"/>
	</g>
	<g class="st1">
		<path d="M102.8,57h-6.4l0.4-10.6h8.8L102.8,57z"/>
		<path d="M134,46.5c0,1.7-0.2,3.1-0.6,4.2s-1.1,1.9-2.1,2.6c-1,0.6-2.4,1.1-4,1.3c-1.7,0.2-3.8,0.4-6.3,0.4c-1.7,0-3.4,0-4.9-0.1
			s-2.9-0.2-4.1-0.3c-1.4-0.1-2.6-0.3-3.8-0.5v-8.5h11v2.3c0.1,0.1,0.3,0.1,0.5,0.1c0.1,0,0.3,0.1,0.5,0.1s0.4,0,0.7,0
			c0.4,0,0.7-0.1,0.9-0.2c0.2-0.1,0.4-0.2,0.5-0.4c0.1-0.1,0.2-0.3,0.2-0.5c0-0.2,0-0.4,0-0.5V43l-1.6,0.3c-0.5,0.1-1,0.1-1.6,0.2
			c-0.6,0-1.2,0.1-1.9,0.1c-1.1,0-2.3,0-3.4-0.1s-2.2-0.3-3.2-0.8c-1-0.4-1.7-1.1-2.3-1.9c-0.6-0.9-0.9-2.1-0.9-3.6v-4
			c0-1.9,0.4-3.3,1.1-4.3c0.7-1,1.7-1.8,2.9-2.3c1.2-0.5,2.6-0.8,4.1-0.9c1.5-0.1,3.1-0.2,4.8-0.2h1.8c1.5,0,3,0.1,4.4,0.2
			c1.4,0.1,2.7,0.4,3.8,1c1.1,0.5,2,1.3,2.7,2.4c0.7,1.1,1,2.6,1,4.5V46.5z M122.3,34c0-0.7-0.1-1.2-0.3-1.4
			c-0.2-0.2-0.6-0.4-1.2-0.4c-0.8,0-1.2,0.1-1.4,0.4c-0.2,0.3-0.3,0.7-0.3,1.3v2.4c0,0.1,0,0.3,0,0.4c0,0.2,0.1,0.3,0.2,0.5
			c0.1,0.2,0.3,0.3,0.5,0.4c0.2,0.1,0.5,0.2,0.9,0.2c0.4,0,0.7,0,1.1-0.1c0.2,0,0.4-0.1,0.5-0.1V34z"/>
	</g>
	<g class="st1">
		<path d="M162.5,46.5c0,1.7-0.2,3.1-0.6,4.2c-0.4,1.1-1.1,1.9-2.1,2.6s-2.4,1.1-4,1.3c-1.7,0.2-3.8,0.4-6.3,0.4
			c-1.7,0-3.4,0-4.9-0.1c-1.5-0.1-2.9-0.2-4.1-0.3c-1.4-0.1-2.6-0.3-3.8-0.5v-8.5h11v2.3c0.1,0.1,0.3,0.1,0.5,0.1
			c0.1,0,0.3,0.1,0.5,0.1c0.2,0,0.4,0,0.7,0c0.4,0,0.7-0.1,0.9-0.2c0.2-0.1,0.4-0.2,0.5-0.4c0.1-0.1,0.2-0.3,0.2-0.5
			c0-0.2,0-0.4,0-0.5V43l-1.6,0.3c-0.5,0.1-1,0.1-1.6,0.2c-0.6,0-1.2,0.1-1.9,0.1c-1.1,0-2.3,0-3.4-0.1c-1.2-0.1-2.2-0.3-3.2-0.8
			c-1-0.4-1.7-1.1-2.3-1.9c-0.6-0.9-0.9-2.1-0.9-3.6v-4c0-1.9,0.4-3.3,1.1-4.3c0.7-1,1.7-1.8,2.9-2.3c1.2-0.5,2.6-0.8,4.1-0.9
			c1.5-0.1,3.1-0.2,4.8-0.2h1.8c1.5,0,3,0.1,4.4,0.2c1.4,0.1,2.7,0.4,3.8,1c1.1,0.5,2,1.3,2.7,2.4c0.7,1.1,1,2.6,1,4.5V46.5z
			 M150.9,34c0-0.7-0.1-1.2-0.3-1.4s-0.6-0.4-1.2-0.4c-0.8,0-1.2,0.1-1.4,0.4c-0.2,0.3-0.3,0.7-0.3,1.3v2.4c0,0.1,0,0.3,0,0.4
			c0,0.2,0.1,0.3,0.2,0.5c0.1,0.2,0.3,0.3,0.5,0.4c0.2,0.1,0.5,0.2,0.9,0.2c0.4,0,0.7,0,1.1-0.1c0.2,0,0.4-0.1,0.5-0.1V34z"/>
	</g>
	<g class="st1">
		<path d="M171.3,57H165l0.4-10.6h8.8L171.3,57z"/>
		<path d="M175.5,46.4v-7H189v7H175.5z"/>
	</g>
	<path id="Line" class="st2" d="M37.5,51.8l151.4-26.3l0.6,1.7L38.1,53.5L37.5,51.8z"/>
</g>
</svg>
