<?xml version="1.0" encoding="utf-8"?>
<!-- Generator: Adobe Illustrator 24.3.0, SVG Export Plug-In . SVG Version: 6.00 Build 0)  -->
<svg version="1.1" id="Warstwa_1" xmlns="http://www.w3.org/2000/svg" xmlns:xlink="http://www.w3.org/1999/xlink" x="0px" y="0px"
	 viewBox="0 0 531 219" style="enable-background:new 0 0 531 219;" xml:space="preserve">
<style type="text/css">
	.st0{fill:#FFDD00;stroke:#000000;stroke-width:5;}
	.st1{enable-background:new    ;}
	.st2{fill-rule:evenodd;clip-rule:evenodd;fill:#FF0000;}
</style>
<rect id="PriceTag" x="2.5" y="2.5" class="st0" width="526" height="214"/>
<g id="Cena">
	<g>
		<g class="st1">
			<path d="M139.9,103.9c0,7-1.1,12.9-3.4,17.8c-2.2,4.9-5.1,9-8.5,12.5c-3.4,3.4-7.2,6.3-11.3,8.6c-4.1,2.3-7.9,4.3-11.4,6.1
				c-3.6,1.8-6.6,3.5-9.2,5.1c-2.6,1.6-4.1,3.4-4.6,5.5h46.1v25.8h-100v-16.2c0-5.6,1.4-10.7,4.1-15.1c2.8-4.5,6.2-8.6,10.2-12.3
				c4.1-3.7,8.5-7.2,13.2-10.4c4.8-3.2,9.2-6.3,13.2-9.4c4.1-3,7.5-6.1,10.2-9.2s4.1-6.5,4.1-10.2c0-2.3-0.5-3.8-1.5-4.6
				c-1-0.8-2.5-1.2-4.5-1.2c-1.3,0-2.3,0.1-3.1,0.2c-0.8,0.1-1.5,0.2-2.1,0.3c-0.6,0.1-1.1,0.2-1.5,0.3v10.2H39.6V73.1
				c4-0.7,8.4-1.3,13.1-1.7c4-0.5,8.8-0.9,14.3-1.2c5.5-0.3,11.4-0.5,17.7-0.5c8,0,15.4,0.2,22.2,0.7c6.8,0.5,12.6,1.8,17.5,4
				c4.9,2.2,8.7,5.7,11.4,10.2C138.5,89.2,139.9,95.6,139.9,103.9z"/>
		</g>
		<g class="st1">
			<path d="M242.3,162.4v22.9h-45.4v-22.9h-53.3v-23.7l30.6-68.1h68.1v66.1h11.2v25.8H242.3z M198.4,89.9l-20.1,46.6h20.1V89.9z"/>
		</g>
		<g class="st1">
			<path d="M311.1,185.2h-45.9l39.4-89h-16v11.5h-36.8V70.5h96.5v25.1L311.1,185.2z"/>
			<path d="M380.8,194h-24.9l1.5-41.6H392L380.8,194z"/>
		</g>
	</g>
	<g id="_00" class="st1">
		<path d="M424.2,121c0,4.6-0.7,8.2-2.2,10.9c-1.4,2.6-3.5,4.6-6.2,5.8c-2.7,1.3-5.9,2.1-9.7,2.4c-3.8,0.3-8,0.5-12.6,0.5
			c-4.9,0-9.3-0.2-13.1-0.5c-3.8-0.3-7.1-1.1-9.7-2.4c-2.6-1.3-4.6-3.2-6-5.8c-1.4-2.6-2.1-6.2-2.1-10.9V91.8
			c0-4.8,0.6-8.5,1.7-11.4c1.1-2.8,2.9-5,5.3-6.4c2.4-1.4,5.6-2.4,9.5-2.8c3.9-0.4,8.7-0.7,14.3-0.7c5.6,0,10.3,0.2,14.2,0.7
			c3.9,0.4,7.1,1.4,9.5,2.9c2.4,1.5,4.2,3.6,5.3,6.4c1.1,2.8,1.7,6.6,1.7,11.3V121z M397.2,90.1c0-0.3,0-0.6-0.1-1
			c0-0.4-0.2-0.7-0.4-1.1c-0.2-0.3-0.6-0.6-1.1-0.9c-0.5-0.2-1.2-0.4-2.1-0.4c-1,0-1.7,0.1-2.2,0.4c-0.5,0.2-0.9,0.5-1.1,0.8
			c-0.2,0.3-0.4,0.7-0.5,1c-0.1,0.4-0.1,0.7-0.1,1v30.3c0,1.4,0.2,2.4,0.7,3.1c0.5,0.7,1.6,1,3.2,1c1.6,0,2.6-0.3,3.1-1
			c0.4-0.7,0.7-1.7,0.7-3V90.1z"/>
		<path d="M491.1,121c0,4.6-0.7,8.2-2.2,10.9c-1.4,2.6-3.5,4.6-6.2,5.8c-2.7,1.3-5.9,2.1-9.7,2.4c-3.8,0.3-8,0.5-12.6,0.5
			c-4.9,0-9.3-0.2-13.1-0.5c-3.8-0.3-7.1-1.1-9.7-2.4c-2.6-1.3-4.6-3.2-6-5.8c-1.4-2.6-2.1-6.2-2.1-10.9V91.8
			c0-4.8,0.6-8.5,1.7-11.4c1.1-2.8,2.9-5,5.3-6.4c2.4-1.4,5.6-2.4,9.5-2.8c3.9-0.4,8.7-0.7,14.3-0.7c5.6,0,10.3,0.2,14.2,0.7
			c3.9,0.4,7.1,1.4,9.5,2.9c2.4,1.5,4.2,3.6,5.3,6.4c1.1,2.8,1.7,6.6,1.7,11.3V121z M464.2,90.1c0-0.3,0-0.6-0.1-1
			c0-0.4-0.2-0.7-0.4-1.1c-0.2-0.3-0.6-0.6-1.1-0.9c-0.5-0.2-1.2-0.4-2.1-0.4c-1,0-1.7,0.1-2.2,0.4c-0.5,0.2-0.9,0.5-1.1,0.8
			c-0.2,0.3-0.4,0.7-0.5,1c-0.1,0.4-0.1,0.7-0.1,1v30.3c0,1.4,0.2,2.4,0.7,3.1c0.5,0.7,1.6,1,3.2,1c1.6,0,2.6-0.3,3.1-1
			c0.4-0.7,0.7-1.7,0.7-3V90.1z"/>
	</g>
	<g class="st1">
		<path d="M453.3,178.5c0,1.3-0.2,2.4-0.5,3.2c-0.4,0.8-0.9,1.4-1.6,1.8c-0.7,0.4-1.6,0.7-2.6,0.8c-1.1,0.1-2.3,0.2-3.6,0.2
			c-1,0-2,0-2.9-0.1c-0.9-0.1-1.8-0.2-2.5-0.3c-0.8-0.1-1.6-0.2-2.4-0.4v-5.1h6.7v1.8c0.1,0,0.3,0,0.4,0.1c0.1,0,0.3,0,0.4,0h0.5
			c0.5,0,0.8-0.1,0.9-0.4s0.1-0.6,0.1-0.9c0-0.2,0-0.5-0.1-0.6s-0.2-0.4-0.5-0.6c-0.2-0.2-0.6-0.4-1-0.6c-0.4-0.2-1-0.5-1.8-0.8
			c-1-0.4-1.8-0.8-2.5-1.2s-1.3-0.8-1.7-1.3c-0.5-0.5-0.8-1-1-1.7c-0.2-0.6-0.3-1.5-0.3-2.5c0-1.3,0.2-2.3,0.6-3
			c0.4-0.7,1-1.3,1.7-1.7c0.7-0.4,1.6-0.6,2.6-0.7s2.1-0.1,3.3-0.1c1.1,0,2,0,3,0.1c0.9,0.1,1.7,0.2,2.4,0.3
			c0.8,0.1,1.5,0.2,2.2,0.4v4.9h-6.4v-1.7c-0.1,0-0.2,0-0.3,0c-0.1,0-0.2,0-0.3,0c-0.1,0-0.3,0-0.4,0c-0.6,0-0.9,0.1-1,0.4
			c-0.1,0.3-0.1,0.5-0.1,0.8c0,0.3,0.1,0.6,0.2,0.8c0.1,0.2,0.4,0.4,0.7,0.6c0.3,0.2,0.8,0.4,1.4,0.7c0.6,0.2,1.3,0.5,2.2,0.9
			c1,0.4,1.8,0.8,2.4,1.3c0.6,0.4,1,0.9,1.3,1.4c0.3,0.5,0.5,1,0.6,1.6C453.3,177.2,453.3,177.8,453.3,178.5z"/>
	</g>
	<g class="st1">
		<path d="M454.5,184.2v-4.3l5.9-10.4h-5.5v-4.7h13.7v4.3l-6,10.4h6.3v4.7H454.5z"/>
	</g>
	<g class="st1">
		<path d="M481.2,184.1c-0.2,0-0.5,0.1-0.8,0.1c-0.3,0-0.7,0.1-1.1,0.1s-1,0-1.6,0c-1.4,0-2.5-0.2-3.3-0.5c-0.8-0.3-1.4-0.8-1.8-1.3
			c-0.4-0.5-0.7-1.1-0.8-1.7s-0.2-1.2-0.2-1.8v-9.8h-1.5v-4.5h1.7v-3.6l7-1.7v5.3h2.3v4.5h-2.3v9.3c0,0.2,0,0.4,0,0.6
			c0,0.2,0,0.4,0.1,0.6c0.1,0.2,0.2,0.4,0.3,0.5c0.2,0.1,0.4,0.2,0.7,0.2h0.6c0.2,0,0.3,0,0.4,0c0.1,0,0.2,0,0.3-0.1V184.1z"/>
	</g>
	<g class="st1">
		<path d="M482.6,184.2v-7h7.5v7H482.6z"/>
	</g>
</g>
<g id="Discount">
	<g class="st1">
		<path d="M65.9,46.1c0,1.9-0.2,3.4-0.6,4.6c-0.4,1.2-1.2,2.1-2.2,2.7c-1.1,0.6-2.5,1.1-4.3,1.3c-1.8,0.2-4.1,0.3-6.8,0.3
			c-1.7,0-3.2,0-4.7-0.1c-1.4-0.1-2.7-0.2-3.8-0.4c-1.3-0.1-2.5-0.3-3.6-0.5v-8.3h11.4v2.4c0.1,0,0.2,0,0.4,0c0.1,0,0.3,0,0.5,0h0.7
			c0.8,0,1.2-0.2,1.3-0.7c0.1-0.5,0.2-1.1,0.2-1.8v-1.1c0-0.8-0.2-1.3-0.5-1.5c-0.3-0.3-0.9-0.4-1.6-0.4h-4.7v-5.6h4.4
			c0.8,0,1.3-0.1,1.6-0.4c0.3-0.3,0.5-0.8,0.5-1.7v-0.7c0-0.8-0.1-1.3-0.2-1.6s-0.5-0.5-1.3-0.5c-0.4,0-0.8,0-1.1,0.1
			c-0.1,0-0.2,0-0.3,0v2H40.1v-8.2c1.1-0.2,2.3-0.3,3.5-0.4c1-0.1,2.2-0.2,3.5-0.3c1.3-0.1,2.6-0.1,3.9-0.1c2.5,0,4.7,0.1,6.6,0.2
			c1.8,0.1,3.3,0.4,4.5,0.9c1.2,0.5,2,1.3,2.6,2.3c0.6,1,0.8,2.4,0.8,4.2c0,1.5-0.2,2.9-0.7,4c-0.5,1.1-1.5,1.9-3.1,2.3
			c1,0.3,1.8,0.6,2.3,1.1c0.6,0.5,1,1,1.3,1.6c0.3,0.6,0.5,1.3,0.5,2C65.8,44.7,65.9,45.4,65.9,46.1z"/>
	</g>
	<g class="st1">
		<path d="M94.2,47.1c0,2-0.3,3.6-1,4.6c-0.7,1.1-1.5,1.9-2.7,2.3c-1.1,0.5-2.4,0.8-3.9,0.8C85.2,55,83.6,55,82,55
			c-2.1,0-4,0-5.7-0.1c-1.7-0.1-3.2-0.2-4.4-0.4c-1.4-0.1-2.7-0.3-3.8-0.5v-8.8h11.6v2.5c0.1,0.1,0.3,0.1,0.5,0.2
			c0.3,0.1,0.7,0.1,1.1,0.1c0.6,0,1-0.1,1.2-0.4c0.2-0.2,0.3-0.6,0.3-1.2v-3.7c0-0.7-0.1-1.1-0.3-1.4C82.5,41.2,82,41,81.2,41
			c-0.1,0-0.3,0-0.5,0.1s-0.3,0.1-0.5,0.2l-0.5,0.3H68.2v-16h25v6.6H79.7V36c0.3-0.2,0.7-0.3,1.2-0.5c0.4-0.1,0.9-0.2,1.6-0.3
			c0.7-0.1,1.5-0.2,2.5-0.2c1.3,0,2.6,0.1,3.7,0.2c1.1,0.1,2.1,0.5,2.9,1c0.8,0.5,1.5,1.3,1.9,2.3c0.5,1,0.7,2.4,0.7,4.1V47.1z"/>
	</g>
	<g class="st1">
		<path d="M122.4,46.5c0,1.7-0.2,3.1-0.6,4.2c-0.4,1.1-1.1,1.9-2.1,2.6s-2.4,1.1-4,1.3c-1.7,0.2-3.8,0.4-6.3,0.4
			c-1.7,0-3.4,0-4.9-0.1c-1.5-0.1-2.9-0.2-4.1-0.3c-1.4-0.1-2.6-0.3-3.8-0.5v-8.5h11v2.3c0.1,0.1,0.3,0.1,0.5,0.1
			c0.1,0,0.3,0.1,0.5,0.1c0.2,0,0.4,0,0.7,0c0.4,0,0.7-0.1,0.9-0.2c0.2-0.1,0.4-0.2,0.5-0.4c0.1-0.1,0.2-0.3,0.2-0.5
			c0-0.2,0-0.4,0-0.5V43l-1.6,0.3c-0.5,0.1-1,0.1-1.6,0.2c-0.6,0-1.2,0.1-1.9,0.1c-1.1,0-2.3,0-3.4-0.1C101,43.2,100,43,99,42.6
			c-1-0.4-1.7-1.1-2.3-1.9c-0.6-0.9-0.9-2.1-0.9-3.6v-4c0-1.9,0.4-3.3,1.1-4.3c0.7-1,1.7-1.8,2.9-2.3c1.2-0.5,2.6-0.8,4.1-0.9
			c1.5-0.1,3.1-0.2,4.8-0.2h1.8c1.5,0,3,0.1,4.4,0.2c1.4,0.1,2.7,0.4,3.8,1c1.1,0.5,2,1.3,2.7,2.4c0.7,1.1,1,2.6,1,4.5V46.5z
			 M110.7,34c0-0.7-0.1-1.2-0.3-1.4s-0.6-0.4-1.2-0.4c-0.8,0-1.2,0.1-1.4,0.4c-0.2,0.3-0.3,0.7-0.3,1.3v2.4c0,0.1,0,0.3,0,0.4
			c0,0.2,0.1,0.3,0.2,0.5c0.1,0.2,0.3,0.3,0.5,0.4c0.2,0.1,0.5,0.2,0.9,0.2c0.4,0,0.7,0,1.1-0.1c0.2,0,0.4-0.1,0.5-0.1V34z"/>
	</g>
	<g class="st1">
		<path d="M131.2,57h-6.4l0.4-10.6h8.8L131.2,57z"/>
		<path d="M135.3,46.4v-7h13.5v7H135.3z"/>
	</g>
	<path id="Line" class="st2" d="M39.5,52.8l110.3-28.3l0.7,1.7L40.2,54.5L39.5,52.8z"/>
</g>
</svg>
